<?xml version="1.0" encoding="UTF-8" standalone="no"?>
<!-- Created with Inkscape (http://www.inkscape.org/) -->

<svg
   xmlns:osb="http://www.openswatchbook.org/uri/2009/osb"
   xmlns:dc="http://purl.org/dc/elements/1.1/"
   xmlns:cc="http://creativecommons.org/ns#"
   xmlns:rdf="http://www.w3.org/1999/02/22-rdf-syntax-ns#"
   xmlns:svg="http://www.w3.org/2000/svg"
   xmlns="http://www.w3.org/2000/svg"
   xmlns:sodipodi="http://sodipodi.sourceforge.net/DTD/sodipodi-0.dtd"
   xmlns:inkscape="http://www.inkscape.org/namespaces/inkscape"
   width="210mm"
   height="297mm"
   viewBox="0 0 744.09448819 1052.3622047"
   id="svg2"
   version="1.1"
   inkscape:version="0.91 r13725"
   sodipodi:docname="example-hypergraph.svg"
   inkscape:export-filename="/Users/bpotter/Desktop/Thesis/TheDocument/document/figures/example-hypergraph.png"
   inkscape:export-xdpi="89.300003"
   inkscape:export-ydpi="89.300003">
  <defs
     id="defs4">
    <marker
       inkscape:stockid="Arrow1Mend"
       orient="auto"
       refY="0.0"
       refX="0.0"
       id="marker8674"
       style="overflow:visible;"
       inkscape:isstock="true">
      <path
         id="path8676"
         d="M 0.0,0.0 L 5.0,-5.0 L -12.5,0.0 L 5.0,5.0 L 0.0,0.0 z "
         style="fill-rule:evenodd;stroke:#000000;stroke-width:1pt;stroke-opacity:1;fill:#000000;fill-opacity:1"
         transform="scale(0.4) rotate(180) translate(10,0)" />
    </marker>
    <marker
       inkscape:isstock="true"
       style="overflow:visible;"
       id="marker8494"
       refX="0.0"
       refY="0.0"
       orient="auto"
       inkscape:stockid="Arrow1Mend"
       inkscape:collect="always">
      <path
         transform="scale(0.4) rotate(180) translate(10,0)"
         style="fill-rule:evenodd;stroke:#000000;stroke-width:1pt;stroke-opacity:1;fill:#000000;fill-opacity:1"
         d="M 0.0,0.0 L 5.0,-5.0 L -12.5,0.0 L 5.0,5.0 L 0.0,0.0 z "
         id="path8496" />
    </marker>
    <marker
       inkscape:isstock="true"
       style="overflow:visible"
       id="marker8328"
       refX="0.0"
       refY="0.0"
       orient="auto"
       inkscape:stockid="Arrow1Mstart">
      <path
         transform="scale(0.4) translate(10,0)"
         style="fill-rule:evenodd;stroke:#000000;stroke-width:1pt;stroke-opacity:1;fill:#000000;fill-opacity:1"
         d="M 0.0,0.0 L 5.0,-5.0 L -12.5,0.0 L 5.0,5.0 L 0.0,0.0 z "
         id="path8330" />
    </marker>
    <marker
       inkscape:isstock="true"
       style="overflow:visible"
       id="marker8148"
       refX="0.0"
       refY="0.0"
       orient="auto"
       inkscape:stockid="Arrow1Mstart">
      <path
         transform="scale(0.4) translate(10,0)"
         style="fill-rule:evenodd;stroke:#000000;stroke-width:1pt;stroke-opacity:1;fill:#000000;fill-opacity:1"
         d="M 0.0,0.0 L 5.0,-5.0 L -12.5,0.0 L 5.0,5.0 L 0.0,0.0 z "
         id="path8150" />
    </marker>
    <marker
       inkscape:stockid="Arrow1Mend"
       orient="auto"
       refY="0.0"
       refX="0.0"
       id="marker7998"
       style="overflow:visible;"
       inkscape:isstock="true"
       inkscape:collect="always">
      <path
         id="path8000"
         d="M 0.0,0.0 L 5.0,-5.0 L -12.5,0.0 L 5.0,5.0 L 0.0,0.0 z "
         style="fill-rule:evenodd;stroke:#000000;stroke-width:1pt;stroke-opacity:1;fill:#000000;fill-opacity:1"
         transform="scale(0.4) rotate(180) translate(10,0)" />
    </marker>
    <marker
       inkscape:isstock="true"
       style="overflow:visible;"
       id="marker7852"
       refX="0.0"
       refY="0.0"
       orient="auto"
       inkscape:stockid="Arrow1Mend"
       inkscape:collect="always">
      <path
         transform="scale(0.4) rotate(180) translate(10,0)"
         style="fill-rule:evenodd;stroke:#000000;stroke-width:1pt;stroke-opacity:1;fill:#000000;fill-opacity:1"
         d="M 0.0,0.0 L 5.0,-5.0 L -12.5,0.0 L 5.0,5.0 L 0.0,0.0 z "
         id="path7854" />
    </marker>
    <marker
       inkscape:stockid="Arrow1Mend"
       orient="auto"
       refY="0.0"
       refX="0.0"
       id="marker7607"
       style="overflow:visible;"
       inkscape:isstock="true"
       inkscape:collect="always">
      <path
         id="path7609"
         d="M 0.0,0.0 L 5.0,-5.0 L -12.5,0.0 L 5.0,5.0 L 0.0,0.0 z "
         style="fill-rule:evenodd;stroke:#000000;stroke-width:1pt;stroke-opacity:1;fill:#000000;fill-opacity:1"
         transform="scale(0.4) rotate(180) translate(10,0)" />
    </marker>
    <marker
       inkscape:isstock="true"
       style="overflow:visible;"
       id="marker7427"
       refX="0.0"
       refY="0.0"
       orient="auto"
       inkscape:stockid="Arrow1Mend"
       inkscape:collect="always">
      <path
         transform="scale(0.4) rotate(180) translate(10,0)"
         style="fill-rule:evenodd;stroke:#000000;stroke-width:1pt;stroke-opacity:1;fill:#000000;fill-opacity:1"
         d="M 0.0,0.0 L 5.0,-5.0 L -12.5,0.0 L 5.0,5.0 L 0.0,0.0 z "
         id="path7429" />
    </marker>
    <marker
       inkscape:stockid="Arrow1Mend"
       orient="auto"
       refY="0.0"
       refX="0.0"
       id="marker7281"
       style="overflow:visible;"
       inkscape:isstock="true"
       inkscape:collect="always">
      <path
         id="path7283"
         d="M 0.0,0.0 L 5.0,-5.0 L -12.5,0.0 L 5.0,5.0 L 0.0,0.0 z "
         style="fill-rule:evenodd;stroke:#000000;stroke-width:1pt;stroke-opacity:1;fill:#000000;fill-opacity:1"
         transform="scale(0.4) rotate(180) translate(10,0)" />
    </marker>
    <marker
       inkscape:isstock="true"
       style="overflow:visible;"
       id="marker7155"
       refX="0.0"
       refY="0.0"
       orient="auto"
       inkscape:stockid="Arrow1Mend"
       inkscape:collect="always">
      <path
         transform="scale(0.4) rotate(180) translate(10,0)"
         style="fill-rule:evenodd;stroke:#000000;stroke-width:1pt;stroke-opacity:1;fill:#000000;fill-opacity:1"
         d="M 0.0,0.0 L 5.0,-5.0 L -12.5,0.0 L 5.0,5.0 L 0.0,0.0 z "
         id="path7157" />
    </marker>
    <marker
       inkscape:stockid="Arrow1Mend"
       orient="auto"
       refY="0.0"
       refX="0.0"
       id="marker7039"
       style="overflow:visible;"
       inkscape:isstock="true"
       inkscape:collect="always">
      <path
         id="path7041"
         d="M 0.0,0.0 L 5.0,-5.0 L -12.5,0.0 L 5.0,5.0 L 0.0,0.0 z "
         style="fill-rule:evenodd;stroke:#000000;stroke-width:1pt;stroke-opacity:1;fill:#000000;fill-opacity:1"
         transform="scale(0.4) rotate(180) translate(10,0)" />
    </marker>
    <marker
       inkscape:stockid="Arrow1Mstart"
       orient="auto"
       refY="0.0"
       refX="0.0"
       id="marker6933"
       style="overflow:visible"
       inkscape:isstock="true"
       inkscape:collect="always">
      <path
         id="path6935"
         d="M 0.0,0.0 L 5.0,-5.0 L -12.5,0.0 L 5.0,5.0 L 0.0,0.0 z "
         style="fill-rule:evenodd;stroke:#000000;stroke-width:1pt;stroke-opacity:1;fill:#000000;fill-opacity:1"
         transform="scale(0.4) translate(10,0)" />
    </marker>
    <marker
       inkscape:isstock="true"
       style="overflow:visible"
       id="marker6819"
       refX="0.0"
       refY="0.0"
       orient="auto"
       inkscape:stockid="Arrow1Mstart"
       inkscape:collect="always">
      <path
         transform="scale(0.4) translate(10,0)"
         style="fill-rule:evenodd;stroke:#000000;stroke-width:1pt;stroke-opacity:1;fill:#000000;fill-opacity:1"
         d="M 0.0,0.0 L 5.0,-5.0 L -12.5,0.0 L 5.0,5.0 L 0.0,0.0 z "
         id="path6821" />
    </marker>
    <marker
       inkscape:isstock="true"
       style="overflow:visible;"
       id="marker6703"
       refX="0.0"
       refY="0.0"
       orient="auto"
       inkscape:stockid="Arrow1Mend"
       inkscape:collect="always">
      <path
         transform="scale(0.4) rotate(180) translate(10,0)"
         style="fill-rule:evenodd;stroke:#000000;stroke-width:1pt;stroke-opacity:1;fill:#000000;fill-opacity:1"
         d="M 0.0,0.0 L 5.0,-5.0 L -12.5,0.0 L 5.0,5.0 L 0.0,0.0 z "
         id="path6705" />
    </marker>
    <marker
       inkscape:stockid="Arrow1Mend"
       orient="auto"
       refY="0.0"
       refX="0.0"
       id="Arrow1Mend"
       style="overflow:visible;"
       inkscape:isstock="true"
       inkscape:collect="always">
      <path
         id="path5794"
         d="M 0.0,0.0 L 5.0,-5.0 L -12.5,0.0 L 5.0,5.0 L 0.0,0.0 z "
         style="fill-rule:evenodd;stroke:#000000;stroke-width:1pt;stroke-opacity:1;fill:#000000;fill-opacity:1"
         transform="scale(0.4) rotate(180) translate(10,0)" />
    </marker>
    <marker
       inkscape:stockid="Arrow1Mstart"
       orient="auto"
       refY="0.0"
       refX="0.0"
       id="marker6527"
       style="overflow:visible"
       inkscape:isstock="true"
       inkscape:collect="always">
      <path
         id="path6529"
         d="M 0.0,0.0 L 5.0,-5.0 L -12.5,0.0 L 5.0,5.0 L 0.0,0.0 z "
         style="fill-rule:evenodd;stroke:#000000;stroke-width:1pt;stroke-opacity:1;fill:#000000;fill-opacity:1"
         transform="scale(0.4) translate(10,0)" />
    </marker>
    <marker
       inkscape:isstock="true"
       style="overflow:visible"
       id="marker6443"
       refX="0.0"
       refY="0.0"
       orient="auto"
       inkscape:stockid="Arrow1Mstart"
       inkscape:collect="always">
      <path
         transform="scale(0.4) translate(10,0)"
         style="fill-rule:evenodd;stroke:#000000;stroke-width:1pt;stroke-opacity:1;fill:#000000;fill-opacity:1"
         d="M 0.0,0.0 L 5.0,-5.0 L -12.5,0.0 L 5.0,5.0 L 0.0,0.0 z "
         id="path6445" />
    </marker>
    <marker
       inkscape:stockid="Arrow1Mstart"
       orient="auto"
       refY="0.0"
       refX="0.0"
       id="marker6367"
       style="overflow:visible"
       inkscape:isstock="true"
       inkscape:collect="always">
      <path
         id="path6369"
         d="M 0.0,0.0 L 5.0,-5.0 L -12.5,0.0 L 5.0,5.0 L 0.0,0.0 z "
         style="fill-rule:evenodd;stroke:#000000;stroke-width:1pt;stroke-opacity:1;fill:#000000;fill-opacity:1"
         transform="scale(0.4) translate(10,0)" />
    </marker>
    <marker
       inkscape:stockid="Arrow2Mstart"
       orient="auto"
       refY="0.0"
       refX="0.0"
       id="marker6297"
       style="overflow:visible"
       inkscape:isstock="true">
      <path
         id="path6299"
         style="fill-rule:evenodd;stroke-width:0.625;stroke-linejoin:round;stroke:#000000;stroke-opacity:1;fill:#000000;fill-opacity:1"
         d="M 8.7185878,4.0337352 L -2.2072895,0.016013256 L 8.7185884,-4.0017078 C 6.9730900,-1.6296469 6.9831476,1.6157441 8.7185878,4.0337352 z "
         transform="scale(0.6) translate(0,0)" />
    </marker>
    <marker
       inkscape:stockid="Arrow2Mstart"
       orient="auto"
       refY="0.0"
       refX="0.0"
       id="Arrow2Mstart"
       style="overflow:visible"
       inkscape:isstock="true">
      <path
         id="path5809"
         style="fill-rule:evenodd;stroke-width:0.625;stroke-linejoin:round;stroke:#000000;stroke-opacity:1;fill:#000000;fill-opacity:1"
         d="M 8.7185878,4.0337352 L -2.2072895,0.016013256 L 8.7185884,-4.0017078 C 6.9730900,-1.6296469 6.9831476,1.6157441 8.7185878,4.0337352 z "
         transform="scale(0.6) translate(0,0)" />
    </marker>
    <marker
       inkscape:stockid="Arrow2Lstart"
       orient="auto"
       refY="0.0"
       refX="0.0"
       id="marker6177"
       style="overflow:visible"
       inkscape:isstock="true">
      <path
         id="path6179"
         style="fill-rule:evenodd;stroke-width:0.625;stroke-linejoin:round;stroke:#000000;stroke-opacity:1;fill:#000000;fill-opacity:1"
         d="M 8.7185878,4.0337352 L -2.2072895,0.016013256 L 8.7185884,-4.0017078 C 6.9730900,-1.6296469 6.9831476,1.6157441 8.7185878,4.0337352 z "
         transform="scale(1.1) translate(1,0)" />
    </marker>
    <marker
       inkscape:stockid="Arrow1Mstart"
       orient="auto"
       refY="0.0"
       refX="0.0"
       id="Arrow1Mstart"
       style="overflow:visible"
       inkscape:isstock="true">
      <path
         id="path5791"
         d="M 0.0,0.0 L 5.0,-5.0 L -12.5,0.0 L 5.0,5.0 L 0.0,0.0 z "
         style="fill-rule:evenodd;stroke:#000000;stroke-width:1pt;stroke-opacity:1;fill:#000000;fill-opacity:1"
         transform="scale(0.4) translate(10,0)" />
    </marker>
    <marker
       inkscape:stockid="Arrow2Lstart"
       orient="auto"
       refY="0.0"
       refX="0.0"
       id="marker6091"
       style="overflow:visible"
       inkscape:isstock="true">
      <path
         id="path6093"
         style="fill-rule:evenodd;stroke-width:0.625;stroke-linejoin:round;stroke:#000000;stroke-opacity:1;fill:#000000;fill-opacity:1"
         d="M 8.7185878,4.0337352 L -2.2072895,0.016013256 L 8.7185884,-4.0017078 C 6.9730900,-1.6296469 6.9831476,1.6157441 8.7185878,4.0337352 z "
         transform="scale(1.1) translate(1,0)" />
    </marker>
    <marker
       inkscape:stockid="Arrow2Lstart"
       orient="auto"
       refY="0.0"
       refX="0.0"
       id="Arrow2Lstart"
       style="overflow:visible"
       inkscape:isstock="true">
      <path
         id="path5803"
         style="fill-rule:evenodd;stroke-width:0.625;stroke-linejoin:round;stroke:#000000;stroke-opacity:1;fill:#000000;fill-opacity:1"
         d="M 8.7185878,4.0337352 L -2.2072895,0.016013256 L 8.7185884,-4.0017078 C 6.9730900,-1.6296469 6.9831476,1.6157441 8.7185878,4.0337352 z "
         transform="scale(1.1) translate(1,0)" />
    </marker>
    <marker
       inkscape:stockid="Arrow1Lstart"
       orient="auto"
       refY="0.0"
       refX="0.0"
       id="Arrow1Lstart"
       style="overflow:visible"
       inkscape:isstock="true">
      <path
         id="path5785"
         d="M 0.0,0.0 L 5.0,-5.0 L -12.5,0.0 L 5.0,5.0 L 0.0,0.0 z "
         style="fill-rule:evenodd;stroke:#000000;stroke-width:1.0pt"
         transform="scale(0.8) translate(12.5,0)" />
    </marker>
    <linearGradient
       id="linearGradient5686"
       osb:paint="solid">
      <stop
         style="stop-color:#000000;stop-opacity:1;"
         offset="0"
         id="stop5688" />
    </linearGradient>
  </defs>
  <sodipodi:namedview
     id="base"
     pagecolor="#ffffff"
     bordercolor="#666666"
     borderopacity="1.0"
     inkscape:pageopacity="0.0"
     inkscape:pageshadow="2"
     inkscape:zoom="0.70710678"
     inkscape:cx="226.73218"
     inkscape:cy="603.16773"
     inkscape:document-units="px"
     inkscape:current-layer="layer1"
     showgrid="false"
     showguides="false"
     inkscape:window-width="1280"
     inkscape:window-height="687"
     inkscape:window-x="0"
     inkscape:window-y="1"
     inkscape:window-maximized="1">
    <inkscape:grid
       type="xygrid"
       id="grid3336" />
  </sodipodi:namedview>
  <metadata
     id="metadata7">
    <rdf:RDF>
      <cc:Work
         rdf:about="">
        <dc:format>image/svg+xml</dc:format>
        <dc:type
           rdf:resource="http://purl.org/dc/dcmitype/StillImage" />
      </cc:Work>
    </rdf:RDF>
  </metadata>
  <g
     inkscape:label="Layer 1"
     inkscape:groupmode="layer"
     id="layer1">
    <path
       style="fill:#ffffff;fill-opacity:1;stroke:#000000;stroke-width:1.98358142;stroke-linecap:square;stroke-linejoin:bevel;stroke-miterlimit:3;stroke-dasharray:none;stroke-dashoffset:0;stroke-opacity:1"
       id="path3338-2"
       sodipodi:type="arc"
       sodipodi:cx="497.20099"
       sodipodi:cy="-271.78244"
       sodipodi:rx="26.447752"
       sodipodi:ry="26.447752"
       sodipodi:start="0"
       sodipodi:end="6.2770631"
       sodipodi:open="true"
       d="m 523.64874,-271.78244 a 26.447752,26.447752 0 0 1 -26.40727,26.44772 26.447752,26.447752 0 0 1 -26.48811,-26.36676 26.447752,26.447752 0 0 1 26.32619,-26.52843 26.447752,26.447752 0 0 1 26.5687,26.28555"
       transform="scale(1,-1)" />
    <path
       style="fill:#ffffff;fill-opacity:1;stroke:#000000;stroke-width:1.98358142;stroke-linecap:square;stroke-linejoin:bevel;stroke-miterlimit:3;stroke-dasharray:none;stroke-dashoffset:0;stroke-opacity:1"
       id="path3338-2-4"
       sodipodi:type="arc"
       sodipodi:cx="237.44629"
       sodipodi:cy="-270.83786"
       sodipodi:rx="26.447752"
       sodipodi:ry="26.447752"
       sodipodi:start="0"
       sodipodi:end="6.2770631"
       sodipodi:open="true"
       d="m 263.89404,-270.83786 a 26.447752,26.447752 0 0 1 -26.40727,26.44772 26.447752,26.447752 0 0 1 -26.48811,-26.36676 26.447752,26.447752 0 0 1 26.32619,-26.52843 26.447752,26.447752 0 0 1 26.5687,26.28555"
       transform="scale(1,-1)" />
    <path
       style="fill:#ffffff;fill-opacity:1;stroke:#000000;stroke-width:1.98358142;stroke-linecap:square;stroke-linejoin:bevel;stroke-miterlimit:3;stroke-dasharray:none;stroke-dashoffset:0;stroke-opacity:1"
       id="path3338-2-40"
       sodipodi:type="arc"
       sodipodi:cx="365.9068"
       sodipodi:cy="-271.78244"
       sodipodi:rx="26.447752"
       sodipodi:ry="26.447752"
       sodipodi:start="0"
       sodipodi:end="6.2770631"
       sodipodi:open="true"
       d="m 392.35455,-271.78244 a 26.447752,26.447752 0 0 1 -26.40727,26.44772 26.447752,26.447752 0 0 1 -26.48811,-26.36676 26.447752,26.447752 0 0 1 26.32619,-26.52843 26.447752,26.447752 0 0 1 26.5687,26.28555"
       transform="scale(1,-1)" />
    <path
       style="fill:#ffffff;fill-opacity:1;stroke:#000000;stroke-width:1.98358142;stroke-linecap:square;stroke-linejoin:bevel;stroke-miterlimit:3;stroke-dasharray:none;stroke-dashoffset:0;stroke-opacity:1"
       id="path3338-2-7"
       sodipodi:type="arc"
       sodipodi:cx="182.66165"
       sodipodi:cy="-414.41138"
       sodipodi:rx="26.447752"
       sodipodi:ry="26.447752"
       sodipodi:start="0"
       sodipodi:end="6.2770631"
       sodipodi:open="true"
       d="m 209.1094,-414.41138 a 26.447752,26.447752 0 0 1 -26.40727,26.44772 26.447752,26.447752 0 0 1 -26.48811,-26.36676 26.447752,26.447752 0 0 1 26.32619,-26.52843 26.447752,26.447752 0 0 1 26.5687,26.28556"
       transform="scale(1,-1)" />
    <path
       style="fill:#ffffff;fill-opacity:1;stroke:#000000;stroke-width:1.98358142;stroke-linecap:square;stroke-linejoin:bevel;stroke-miterlimit:3;stroke-dasharray:none;stroke-dashoffset:0;stroke-opacity:1"
       id="path3338-2-409"
       sodipodi:type="arc"
       sodipodi:cx="303.56567"
       sodipodi:cy="-413.4668"
       sodipodi:rx="26.447752"
       sodipodi:ry="26.447752"
       sodipodi:start="0"
       sodipodi:end="6.2770631"
       sodipodi:open="true"
       d="m 330.01343,-413.4668 a 26.447752,26.447752 0 0 1 -26.40728,26.44772 26.447752,26.447752 0 0 1 -26.4881,-26.36676 26.447752,26.447752 0 0 1 26.32619,-26.52843 26.447752,26.447752 0 0 1 26.56869,26.28556"
       transform="scale(1,-1)" />
    <path
       style="fill:#ffffff;fill-opacity:1;stroke:#000000;stroke-width:1.98358142;stroke-linecap:square;stroke-linejoin:bevel;stroke-miterlimit:3;stroke-dasharray:none;stroke-dashoffset:0;stroke-opacity:1"
       id="path3338-2-3"
       sodipodi:type="arc"
       sodipodi:cx="432.97073"
       sodipodi:cy="-413.4668"
       sodipodi:rx="26.447752"
       sodipodi:ry="26.447752"
       sodipodi:start="0"
       sodipodi:end="6.2770631"
       sodipodi:open="true"
       d="m 459.41849,-413.4668 a 26.447752,26.447752 0 0 1 -26.40728,26.44772 26.447752,26.447752 0 0 1 -26.4881,-26.36676 26.447752,26.447752 0 0 1 26.32619,-26.52843 26.447752,26.447752 0 0 1 26.56869,26.28556"
       transform="scale(1,-1)" />
    <path
       style="fill:#ffffff;fill-opacity:1;stroke:#000000;stroke-width:1.98358142;stroke-linecap:square;stroke-linejoin:bevel;stroke-miterlimit:3;stroke-dasharray:none;stroke-dashoffset:0;stroke-opacity:1"
       id="path3338-2-9"
       sodipodi:type="arc"
       sodipodi:cx="556.70844"
       sodipodi:cy="-413.4668"
       sodipodi:rx="26.447752"
       sodipodi:ry="26.447752"
       sodipodi:start="0"
       sodipodi:end="6.2770631"
       sodipodi:open="true"
       d="m 583.15619,-413.4668 a 26.447752,26.447752 0 0 1 -26.40728,26.44772 26.447752,26.447752 0 0 1 -26.4881,-26.36676 26.447752,26.447752 0 0 1 26.32619,-26.52843 26.447752,26.447752 0 0 1 26.56869,26.28556"
       transform="scale(1,-1)" />
    <path
       style="fill:#ffffff;fill-opacity:1;stroke:#000000;stroke-width:1.98358142;stroke-linecap:square;stroke-linejoin:bevel;stroke-miterlimit:3;stroke-dasharray:none;stroke-dashoffset:0;stroke-opacity:1"
       id="path3338-2-49"
       sodipodi:type="arc"
       sodipodi:cx="268.88535"
       sodipodi:cy="-549.69336"
       sodipodi:rx="26.447752"
       sodipodi:ry="26.447752"
       sodipodi:start="0"
       sodipodi:end="6.2770631"
       sodipodi:open="true"
       d="m 295.3331,-549.69336 a 26.447752,26.447752 0 0 1 -26.40727,26.44772 26.447752,26.447752 0 0 1 -26.48811,-26.36676 26.447752,26.447752 0 0 1 26.32619,-26.52843 26.447752,26.447752 0 0 1 26.56869,26.28555"
       transform="scale(1,-1)" />
    <path
       style="fill:#ffffff;fill-opacity:1;stroke:#000000;stroke-width:1.98358142;stroke-linecap:square;stroke-linejoin:bevel;stroke-miterlimit:3;stroke-dasharray:none;stroke-dashoffset:0;stroke-opacity:1"
       id="path3338-2-1"
       sodipodi:type="arc"
       sodipodi:cx="416.03574"
       sodipodi:cy="-545.51575"
       sodipodi:rx="26.447752"
       sodipodi:ry="26.447752"
       sodipodi:start="0"
       sodipodi:end="6.2770631"
       sodipodi:open="true"
       d="m 442.48349,-545.51575 a 26.447752,26.447752 0 0 1 -26.40727,26.44772 26.447752,26.447752 0 0 1 -26.48811,-26.36676 26.447752,26.447752 0 0 1 26.32619,-26.52843 26.447752,26.447752 0 0 1 26.56869,26.28556"
       transform="scale(1,-1)" />
    <path
       style="fill:#ffffff;fill-opacity:1;stroke:#000000;stroke-width:1.98358142;stroke-linecap:square;stroke-linejoin:bevel;stroke-miterlimit:3;stroke-dasharray:none;stroke-dashoffset:0;stroke-opacity:1"
       id="path3338-2-12"
       sodipodi:type="arc"
       sodipodi:cx="577.77698"
       sodipodi:cy="-552.79559"
       sodipodi:rx="26.447752"
       sodipodi:ry="26.447752"
       sodipodi:start="0"
       sodipodi:end="6.2770631"
       sodipodi:open="true"
       d="m 604.22473,-552.79559 a 26.447752,26.447752 0 0 1 -26.40727,26.44772 26.447752,26.447752 0 0 1 -26.48811,-26.36676 26.447752,26.447752 0 0 1 26.32619,-26.52844 26.447752,26.447752 0 0 1 26.56869,26.28556"
       transform="scale(1,-1)" />
    <path
       style="fill:#ffffff;fill-opacity:1;stroke:#000000;stroke-width:1.98358142;stroke-linecap:square;stroke-linejoin:bevel;stroke-miterlimit:3;stroke-dasharray:none;stroke-dashoffset:0;stroke-opacity:1"
       id="path3338-2-36"
       sodipodi:type="arc"
       sodipodi:cx="188.85115"
       sodipodi:cy="-655.19623"
       sodipodi:rx="26.447752"
       sodipodi:ry="26.447752"
       sodipodi:start="0"
       sodipodi:end="6.2770631"
       sodipodi:open="true"
       d="m 215.2989,-655.19623 a 26.447752,26.447752 0 0 1 -26.40727,26.44772 26.447752,26.447752 0 0 1 -26.48811,-26.36676 26.447752,26.447752 0 0 1 26.32619,-26.52843 26.447752,26.447752 0 0 1 26.5687,26.28555"
       transform="scale(1,-1)" />
    <path
       style="fill:#ffffff;fill-opacity:1;stroke:#000000;stroke-width:1.98358142;stroke-linecap:square;stroke-linejoin:bevel;stroke-miterlimit:3;stroke-dasharray:none;stroke-dashoffset:0;stroke-opacity:1"
       id="path3338-2-5"
       sodipodi:type="arc"
       sodipodi:cx="350.62024"
       sodipodi:cy="-651.20026"
       sodipodi:rx="26.447752"
       sodipodi:ry="26.447752"
       sodipodi:start="0"
       sodipodi:end="6.2770631"
       sodipodi:open="true"
       d="m 377.06799,-651.20026 a 26.447752,26.447752 0 0 1 -26.40727,26.44772 26.447752,26.447752 0 0 1 -26.48811,-26.36676 26.447752,26.447752 0 0 1 26.32619,-26.52843 26.447752,26.447752 0 0 1 26.5687,26.28556"
       transform="scale(1,-1)" />
    <path
       style="fill:#ffffff;fill-opacity:1;stroke:#000000;stroke-width:1.98358142;stroke-linecap:square;stroke-linejoin:bevel;stroke-miterlimit:3;stroke-dasharray:none;stroke-dashoffset:0;stroke-opacity:1"
       id="path3338-2-99"
       sodipodi:type="arc"
       sodipodi:cx="502.86835"
       sodipodi:cy="-633.54993"
       sodipodi:rx="26.447752"
       sodipodi:ry="26.447752"
       sodipodi:start="0"
       sodipodi:end="6.2770631"
       sodipodi:open="true"
       d="m 529.3161,-633.54993 a 26.447752,26.447752 0 0 1 -26.40727,26.44772 26.447752,26.447752 0 0 1 -26.48811,-26.36676 26.447752,26.447752 0 0 1 26.32619,-26.52843 26.447752,26.447752 0 0 1 26.56869,26.28556"
       transform="scale(1,-1)" />
    <path
       style="fill:none;fill-rule:evenodd;stroke:#000000;stroke-width:1.98358142;stroke-linecap:butt;stroke-linejoin:miter;stroke-miterlimit:4;stroke-dasharray:none;stroke-opacity:1;marker-start:url(#marker6367)"
       d="m 201.55292,396.46469 c 0,0 119.01489,-52.89551 52.89551,-105.79102"
       id="path5777"
       inkscape:connector-curvature="0" />
    <path
       style="fill:none;fill-rule:evenodd;stroke:#000000;stroke-width:1.98358142;stroke-linecap:butt;stroke-linejoin:miter;stroke-miterlimit:0;stroke-dasharray:none;stroke-opacity:1;marker-start:url(#marker6443)"
       d="m 347.01556,290.67367 c 0,0 -46.28357,52.89551 -92.56713,0"
       id="path6137"
       inkscape:connector-curvature="0" />
    <path
       style="fill:none;fill-rule:evenodd;stroke:#000000;stroke-width:1.98358142;stroke-linecap:butt;stroke-linejoin:miter;stroke-miterlimit:4;stroke-dasharray:none;stroke-opacity:1;marker-end:url(#Arrow1Mend)"
       d="m 313.95587,389.85275 c 0,0 33.05969,-19.83582 46.28357,-92.56714"
       id="path6519"
       inkscape:connector-curvature="0" />
    <path
       style="fill:none;fill-rule:evenodd;stroke:#000000;stroke-width:2.02310205;stroke-linecap:butt;stroke-linejoin:miter;stroke-miterlimit:4;stroke-dasharray:none;stroke-opacity:1;marker-end:url(#marker6703)"
       d="m 386.74615,287.58146 c 0,0 25.52544,21.37968 44.66953,99.77181"
       id="path6695"
       inkscape:connector-curvature="0" />
    <path
       style="fill:none;fill-rule:evenodd;stroke:#000000;stroke-width:1.98358142;stroke-linecap:butt;stroke-linejoin:miter;stroke-miterlimit:4;stroke-dasharray:none;stroke-opacity:1;marker-start:url(#marker6527)"
       d="m 452.80657,396.46469 c 0,0 59.50744,-39.67163 46.28357,-99.17908"
       id="path6791"
       inkscape:connector-curvature="0" />
    <path
       style="fill:none;fill-rule:evenodd;stroke:#000000;stroke-width:1.98358142;stroke-linecap:butt;stroke-linejoin:miter;stroke-miterlimit:4;stroke-dasharray:none;stroke-opacity:1;marker-start:url(#marker6819)"
       d="m 538.76177,396.46469 c 0,0 -33.0597,-33.0597 -39.67163,-99.17908"
       id="path6811"
       inkscape:connector-curvature="0" />
    <path
       style="fill:none;fill-rule:evenodd;stroke:#000000;stroke-width:2.01205134;stroke-linecap:butt;stroke-linejoin:miter;stroke-miterlimit:4;stroke-dasharray:none;stroke-opacity:1;marker-end:url(#marker7039)"
       d="m 282.54645,428.59553 c 0,0 -116.44705,64.4906 -94.10481,200.75811"
       id="path6925"
       inkscape:connector-curvature="0" />
    <path
       style="fill:none;fill-rule:evenodd;stroke:#000000;stroke-width:2.04056263;stroke-linecap:butt;stroke-linejoin:miter;stroke-miterlimit:4;stroke-dasharray:none;stroke-opacity:1"
       d="m 194.95448,437.57954 c 0,0 47.65109,20.38936 13.6146,67.96456"
       id="path7145"
       inkscape:connector-curvature="0" />
    <path
       style="fill:none;fill-rule:evenodd;stroke:#000000;stroke-width:2.02235222;stroke-linecap:butt;stroke-linejoin:miter;stroke-miterlimit:4;stroke-dasharray:none;stroke-opacity:1;marker-end:url(#marker7155)"
       d="m 215.36025,495.70036 c 0,0 -48.20202,65.9939 27.54402,52.79512"
       id="path7147"
       inkscape:connector-curvature="0" />
    <path
       style="fill:none;fill-rule:evenodd;stroke:#000000;stroke-width:1.98358142;stroke-linecap:butt;stroke-linejoin:miter;stroke-miterlimit:4;stroke-dasharray:none;stroke-opacity:1;marker-end:url(#marker7281)"
       d="m 304.03796,439.44228 c 0,0 9.91791,66.11938 -16.52984,92.56714"
       id="path7405"
       inkscape:connector-curvature="0" />
    <path
       style="fill:none;fill-rule:evenodd;stroke:#000000;stroke-width:1.98358142;stroke-linecap:butt;stroke-linejoin:miter;stroke-miterlimit:4;stroke-dasharray:none;stroke-opacity:1;marker-end:url(#marker7427)"
       d="m 304.70587,489.03182 c 0,0 -1.24862,81.7565 39.67163,135.54473"
       id="path7419"
       inkscape:connector-curvature="0" />
    <path
       style="fill:none;fill-rule:evenodd;stroke:#000000;stroke-width:1.98358142;stroke-linecap:butt;stroke-linejoin:miter;stroke-miterlimit:4;stroke-dasharray:none;stroke-opacity:1;marker-end:url(#marker7607)"
       d="m 323.87378,654.33027 c 0,0 -33.05969,13.22388 -109.09698,0"
       id="path7599"
       inkscape:connector-curvature="0" />
    <path
       style="fill:none;fill-rule:evenodd;stroke:#000000;stroke-width:2.04113293;stroke-linecap:butt;stroke-linejoin:miter;stroke-miterlimit:4;stroke-dasharray:none;stroke-opacity:1;marker-start:url(#marker6933)"
       d="m 262.22508,574.0198 c 0,0 -55.89809,82.81387 13.97453,86.12643"
       id="path7737"
       inkscape:connector-curvature="0" />
    <path
       style="fill:none;fill-rule:evenodd;stroke:#000000;stroke-width:1.98358142;stroke-linecap:butt;stroke-linejoin:miter;stroke-miterlimit:4;stroke-dasharray:none;stroke-opacity:1;marker-end:url(#marker7852)"
       d="m 535.4558,429.52438 c 0,0 -84.19992,24.72435 -102.48504,95.8731"
       id="path7844"
       inkscape:connector-curvature="0" />
    <path
       style="fill:none;fill-rule:evenodd;stroke:#000000;stroke-width:1.98358142;stroke-linecap:butt;stroke-linejoin:miter;stroke-miterlimit:4;stroke-dasharray:none;stroke-opacity:1"
       d="m 452.33429,431.88578 c 0,0 79.34325,-6.61193 19.83581,33.05969"
       id="path7988"
       inkscape:connector-curvature="0" />
    <path
       style="fill:none;fill-rule:evenodd;stroke:#000000;stroke-width:1.98358142;stroke-linecap:butt;stroke-linejoin:miter;stroke-miterlimit:4;stroke-dasharray:none;stroke-opacity:1;marker-end:url(#marker7998)"
       d="m 416.44091,571.68105 c 0,0 13.22388,66.11938 -39.67163,79.34325"
       id="path7990"
       inkscape:connector-curvature="0" />
    <path
       style="fill:none;fill-rule:evenodd;stroke:#000000;stroke-width:2.00946426;stroke-linecap:butt;stroke-linejoin:miter;stroke-miterlimit:4;stroke-dasharray:none;stroke-opacity:1;marker-start:url(#marker8148)"
       d="m 481.20648,647.70155 c 0,0 -57.25358,33.96831 -64.53158,-42.93215"
       id="path8140"
       inkscape:connector-curvature="0" />
    <path
       style="fill:none;fill-rule:evenodd;stroke:#000000;stroke-width:1.99765122;stroke-linecap:butt;stroke-linejoin:miter;stroke-miterlimit:4;stroke-dasharray:none;stroke-opacity:1;marker-end:url(#marker8494)"
       d="m 440.99297,538.61013 c 0,0 46.08561,-23.56224 114.25391,0"
       id="path8320"
       inkscape:connector-curvature="0" />
    <path
       style="fill:none;fill-rule:evenodd;stroke:#000000;stroke-width:1.99441361;stroke-linecap:butt;stroke-linejoin:miter;stroke-miterlimit:4;stroke-dasharray:none;stroke-opacity:1;marker-end:url(#marker8674)"
       d="m 556.7157,568.37268 c 0,0 -66.91686,19.81406 -117.1045,-9.90703"
       id="path8666"
       inkscape:connector-curvature="0" />
  </g>
</svg>
